<svg xmlns="http://www.w3.org/2000/svg" xmlns:xlink="http://www.w3.org/1999/xlink" preserveAspectRatio="xMidYMid" width="30" height="30" viewBox="0 0 30 30">
  <defs>
    <style>
      .cls-1 {
        fill: #07f;
        fill-rule: evenodd;
      }
    </style>
  </defs>
  <path d="M26.000,30.000 L4.000,30.000 C1.791,30.000 0.000,28.209 0.000,26.000 L0.000,4.000 C0.000,1.791 1.791,-0.000 4.000,-0.000 L26.000,-0.000 C28.209,-0.000 30.000,1.791 30.000,4.000 L30.000,26.000 C30.000,28.209 28.209,30.000 26.000,30.000 ZM24.516,7.435 C23.918,6.833 22.947,6.833 22.348,7.435 L12.594,17.244 L8.620,13.248 C8.021,12.646 7.051,12.646 6.452,13.248 C5.853,13.850 5.853,14.825 6.452,15.427 L11.510,20.513 C12.109,21.115 13.079,21.115 13.678,20.513 L24.516,9.615 C25.115,9.013 25.115,8.037 24.516,7.435 Z" class="cls-1"/>
</svg>
